HIERARCHY
ROOT Hips
{
	OFFSET 0.000000 0.000000 0.000000
	CHANNELS 6 Xposition Yposition Zposition Xrotation Yrotation Zrotation
	JOINT LeftUpLeg_virtual
	{
		OFFSET 0.000000 0.000000 0.000000
		CHANNELS 3 Xrotation Yrotation Zrotation
		JOINT LeftUpLeg
		{
			OFFSET 11.394100 -6.187798 -0.413800
			CHANNELS 3 Xrotation Yrotation Zrotation
			JOINT LeftLeg
			{
				OFFSET 0.430247 -32.302673 3.732800
				CHANNELS 3 Xrotation Yrotation Zrotation
				JOINT LeftFoot
				{
					OFFSET -0.430247 -48.264931 -6.423300
					CHANNELS 3 Xrotation Yrotation Zrotation
					JOINT LeftToeBase
					{
						OFFSET 4.230900 -16.068199 23.438400
						CHANNELS 3 Xrotation Yrotation Zrotation
						JOINT LeftToe_End
						{
							OFFSET 4.510700 0.695400 19.974600
							CHANNELS 3 Xrotation Yrotation Zrotation
							End Site
							{
								OFFSET 0 0 0
							}
						}
					}
				}
			}
		}
	}
	JOINT RightUpLeg_virtual
	{
		OFFSET 0.000000 0.000000 0.000000
		CHANNELS 3 Xrotation Yrotation Zrotation
		JOINT RightUpLeg
		{
			OFFSET -11.333700 -6.187798 -0.413800
			CHANNELS 3 Xrotation Yrotation Zrotation
			JOINT RightLeg
			{
				OFFSET -0.430392 -32.302628 3.733000
				CHANNELS 3 Xrotation Yrotation Zrotation
				JOINT RightFoot
				{
					OFFSET 0.430392 -48.264973 -6.423500
					CHANNELS 3 Xrotation Yrotation Zrotation
					JOINT RightToeBase
					{
						OFFSET -4.230900 -16.068199 23.438400
						CHANNELS 3 Xrotation Yrotation Zrotation
						JOINT RightToe_End
						{
							OFFSET -4.510700 0.695400 19.974600
							CHANNELS 3 Xrotation Yrotation Zrotation
							End Site
							{
								OFFSET 0 0 0
							}
						}
					}
				}
			}
		}
	}
	JOINT Spine_virtual
	{
		OFFSET 0.000000 0.000000 0.000000
		CHANNELS 3 Xrotation Yrotation Zrotation
		JOINT Spine
		{
			OFFSET -0.002400 12.777504 0.315300
			CHANNELS 3 Xrotation Yrotation Zrotation
			JOINT Spine1
			{
				OFFSET -0.002067 5.816869 0.032633
				CHANNELS 3 Xrotation Yrotation Zrotation
				JOINT Spine1_split
				{
					OFFSET -0.002067 5.816869 0.032633
					CHANNELS 3 Xrotation Yrotation Zrotation
					JOINT Spine2
					{
						OFFSET -0.002067 5.816869 0.032633
						CHANNELS 3 Xrotation Yrotation Zrotation
						JOINT Neck_virtual
						{
							OFFSET 0.000000 0.000000 0.000000
							CHANNELS 3 Xrotation Yrotation Zrotation
							JOINT Neck
							{
								OFFSET -0.003700 21.199493 -0.826900
								CHANNELS 3 Xrotation Yrotation Zrotation
								JOINT Head
								{
									OFFSET 0.000000 20.442200 4.834800
									CHANNELS 3 Xrotation Yrotation Zrotation
									JOINT HeadTop_End
									{
										OFFSET 0.000000 34.668396 4.968400
										CHANNELS 3 Xrotation Yrotation Zrotation
										End Site
										{
											OFFSET 0 0 0
										}
									}
								}
							}
						}
						JOINT LeftShoulder_virtual
						{
							OFFSET 0.000000 0.000000 0.000000
							CHANNELS 3 Xrotation Yrotation Zrotation
							JOINT LeftShoulder
							{
								OFFSET 3.288150 8.794197 -1.372250
								CHANNELS 3 Xrotation Yrotation Zrotation
								JOINT LeftShoulder_split
								{
									OFFSET 3.288150 8.794197 -1.372250
									CHANNELS 3 Xrotation Yrotation Zrotation
									JOINT LeftArm
									{
										OFFSET 11.953299 -2.279007 -0.146200
										CHANNELS 3 Xrotation Yrotation Zrotation
										JOINT LeftForeArm
										{
											OFFSET 18.448900 0.000000 0.000000
											CHANNELS 3 Xrotation Yrotation Zrotation
											JOINT LeftHand
											{
												OFFSET 29.527798 0.000000 0.000000
												CHANNELS 3 Xrotation Yrotation Zrotation
												End Site
												{
													OFFSET 0 0 0
												}
											}
										}
									}
								}
							}
						}
						JOINT RightShoulder_virtual
						{
							OFFSET 0.000000 0.000000 0.000000
							CHANNELS 3 Xrotation Yrotation Zrotation
							JOINT RightShoulder
							{
								OFFSET -3.249400 8.794197 -1.372250
								CHANNELS 3 Xrotation Yrotation Zrotation
								JOINT RightShoulder_split
								{
									OFFSET -3.249400 8.794197 -1.372250
									CHANNELS 3 Xrotation Yrotation Zrotation
									JOINT RightArm
									{
										OFFSET -11.953299 -2.279007 -0.146200
										CHANNELS 3 Xrotation Yrotation Zrotation
										JOINT RightForeArm
										{
											OFFSET -18.448900 0.000000 0.000000
											CHANNELS 3 Xrotation Yrotation Zrotation
											JOINT RightHand
											{
												OFFSET -29.527802 0.000000 0.000000
												CHANNELS 3 Xrotation Yrotation Zrotation
												End Site
												{
													OFFSET 0 0 0
												}
											}
										}
									}
								}
							}
						}
					}
				}
			}
		}
	}
}
MOTION
Frames: 4
Frame Time: 0.03333333
6.912634 92.757294 1.310127 0.000000 0.000000 0.000000 6.165044 -13.941488 -2.129304 -40.462963 1.885747 14.084298 51.184167 11.836860 -1.006157 -12.759204 4.055179 -10.673229 -1.941764 -3.182257 -4.123443 0.000000 0.000000 0.000000 5.469913 -9.838281 -1.278794 -29.571929 -5.684711 -13.745133 47.664134 -11.966447 -8.538914 -2.876859 5.313942 10.279921 -20.669566 -10.187751 16.727145 0.000000 0.000000 0.000000 6.850339 -8.409231 -0.445300 12.694195 2.700265 -2.327545 8.321003 6.511561 -2.605358 0.075821 -1.724701 1.149062 0.000000 0.000000 0.000000 -1.715272 6.070713 -0.793139 -6.001269 1.133575 -0.127302 -7.739131 8.182875 6.110088 0.000000 0.000000 0.000000 -3.135160 6.100633 -0.885861 -2.176611 0.298874 -3.216418 1.037379 -1.788485 1.295458 -14.045100 1.035507 -55.399196 -12.941871 -32.141559 -5.066306 0.000000 0.000000 0.000000 -3.656122 5.392517 -0.854352 5.146720 -8.955423 9.724328 2.263689 -2.385941 -2.280443 22.964945 58.023249 24.919629 16.367017 29.554580 4.934926 0.000000 0.000000 0.000000 
6.915903 93.525909 1.224236 0.000000 0.000000 0.000000 6.514642 -14.028838 -2.668856 -39.409628 1.125641 14.149796 48.196895 11.964007 -0.452401 -11.338895 3.770416 -10.070073 -1.906687 -3.261852 -4.436911 0.000000 0.000000 0.000000 5.564553 -9.916919 -1.963072 -28.520845 -6.518576 -11.893785 44.376248 -9.750559 -7.955764 -4.726447 6.033727 10.962342 -17.709528 -7.489881 12.368799 0.000000 0.000000 0.000000 6.907378 -8.282096 -0.961010 12.900924 2.875125 -1.971479 7.990048 6.536144 -2.460464 -0.031734 -1.819020 1.049380 0.000000 0.000000 0.000000 -2.055278 6.004657 -0.571029 -6.191576 1.231296 -0.276329 -7.320978 7.720437 6.738230 0.000000 0.000000 0.000000 -3.486078 6.046849 -0.818730 -2.160078 1.058502 -3.619727 1.240487 -1.979654 1.508110 -14.112741 1.522900 -55.510836 -12.165339 -30.922998 -4.263161 0.000000 0.000000 0.000000 -3.980672 5.389208 -0.703628 4.677437 -7.512895 9.399425 2.135455 -2.181740 -2.821362 15.259776 54.279821 30.832936 15.363718 26.694307 6.716904 0.000000 0.000000 0.000000 
6.868427 94.297386 1.124073 0.000000 0.000000 0.000000 6.607799 -14.226334 -3.074351 -38.139448 0.679084 14.216884 45.433486 12.061703 0.016512 -10.416449 3.658315 -9.215926 -1.881742 -3.334949 -4.725731 0.000000 0.000000 0.000000 5.499025 -10.148959 -2.503406 -26.583989 -6.481158 -10.136317 39.881089 -8.081303 -7.600848 -6.929296 5.496200 11.515190 -14.493871 -5.492446 9.239719 0.000000 0.000000 0.000000 6.640987 -8.353503 -1.395547 13.132655 3.028056 -1.588690 7.607641 6.515743 -2.363986 0.019955 -2.013085 0.981039 0.000000 0.000000 0.000000 -2.420406 5.910040 -0.427650 -6.291420 1.336142 -0.399039 -6.845979 7.092236 7.456103 0.000000 0.000000 0.000000 -3.843420 5.949031 -0.820389 -2.127554 1.774944 -3.980748 1.321611 -2.047702 1.587917 -14.057383 2.185907 -55.686949 -11.410037 -29.643369 -3.518921 0.000000 0.000000 0.000000 -4.323336 5.346031 -0.621990 4.125201 -6.223341 8.920477 1.785895 -1.944046 -2.954561 9.308533 49.521248 36.425809 15.385853 24.513218 6.885130 0.000000 0.000000 0.000000 
6.820292 94.935623 0.997551 0.000000 0.000000 0.000000 6.440042 -14.400385 -3.337947 -36.849823 0.606516 14.214873 43.197603 12.122372 0.318354 -9.953155 3.765453 -8.286878 -1.930298 -3.361226 -4.937055 0.000000 0.000000 0.000000 5.305469 -10.289972 -2.905220 -24.224956 -5.675597 -8.668171 34.842291 -6.770488 -7.505125 -9.107701 4.178235 11.944075 -11.501858 -4.269742 7.756019 0.000000 0.000000 0.000000 6.089344 -8.536125 -1.692451 13.334218 3.098083 -1.241094 7.195893 6.453149 -2.277530 0.195572 -2.179689 0.987794 0.000000 0.000000 0.000000 -2.819064 5.796979 -0.327011 -6.257812 1.393389 -0.540958 -6.374079 6.291093 8.259579 0.000000 0.000000 0.000000 -4.217206 5.825610 -0.831151 -2.088688 2.420555 -4.196732 1.270206 -2.154753 1.644072 -13.862140 2.785304 -55.909651 -10.688411 -28.474142 -2.840664 0.000000 0.000000 0.000000 -4.681291 5.274534 -0.556120 3.538832 -5.090938 8.435454 1.265993 -1.938372 -2.767722 5.333156 44.380568 41.548331 15.989198 22.911040 5.914326 0.000000 0.000000 0.000000 
